<svg width="223" height="57" viewBox="0 0 223 57" fill="none" xmlns="http://www.w3.org/2000/svg">
<g clip-path="url(#clip0_306_657)">
<path d="M181.524 37.1495C176.474 37.1495 172.494 35.7895 168.664 32.8295L173.174 26.9095C176.084 29.0495 178.664 30.3595 181.374 30.3595C184.574 30.3595 186.524 28.8095 186.524 25.7995C186.524 22.5495 184.774 20.7495 181.424 20.7495C179.284 20.7495 177.394 21.4795 175.694 22.6895L170.354 19.1895L171.814 2.43945H194.194L193.564 9.76945H178.514L177.934 15.8395C179.434 15.1095 181.284 14.6295 183.904 14.6295C191.524 14.6295 195.844 18.6095 195.844 25.3595C195.844 32.7895 189.774 37.1595 181.524 37.1595V37.1495Z" fill="#57A039"/>
<path d="M208.444 30.149C212.664 28.889 215.744 24.989 215.744 20.359C215.744 19.509 215.644 18.689 215.444 17.909C214.414 11.299 208.704 6.23898 201.804 6.23898C197.804 6.23898 194.204 7.93898 191.684 10.649C194.744 6.29898 199.804 3.45898 205.524 3.45898C208.274 3.45898 210.884 4.11898 213.174 5.28898C216.524 7.57898 218.834 11.319 219.154 15.689C219.654 22.599 214.994 28.689 208.434 30.159L208.444 30.149Z" fill="#3E7C33"/>
<path d="M221.146 26.8298C218.606 32.9498 212.566 37.2598 205.526 37.2598C203.236 37.2598 201.046 36.7998 199.056 35.9798C195.806 34.1198 193.316 30.9398 192.446 26.9998C190.856 19.8598 195.116 12.7798 202.036 10.7598C198.276 12.1298 195.546 15.6398 195.326 19.8098C195.326 19.9898 195.316 20.1798 195.316 20.3598C195.316 21.2098 195.416 22.0298 195.616 22.8198C197.076 29.9398 203.866 34.7598 211.136 33.6898C215.526 33.0498 219.116 30.4098 221.146 26.8298Z" fill="#3E7C33"/>
<path d="M222.423 20.3591C222.423 22.6491 221.963 24.8391 221.143 26.8291C219.113 30.4091 215.513 33.0491 211.133 33.6891C203.853 34.7591 197.073 29.9391 195.613 22.8191C196.713 27.2691 200.733 30.5791 205.533 30.5791C206.543 30.5791 207.523 30.4291 208.453 30.1591C215.013 28.6891 219.683 22.5991 219.173 15.6891C218.853 11.3291 216.543 7.58906 213.193 5.28906C218.683 8.07906 222.443 13.7791 222.443 20.3591H222.423Z" fill="#57A039"/>
<path d="M215.445 17.8985C214.345 13.4385 210.325 10.1385 205.525 10.1385C204.305 10.1385 203.135 10.3485 202.045 10.7485C202.045 10.7485 202.045 10.7485 202.035 10.7485C195.115 12.7685 190.855 19.8485 192.445 26.9885C193.325 30.9385 195.805 34.1085 199.055 35.9685C192.935 33.4285 188.625 27.3885 188.625 20.3485C188.625 16.7385 189.755 13.3885 191.695 10.6385C194.215 7.91852 197.815 6.22852 201.815 6.22852C208.715 6.22852 214.425 11.2885 215.455 17.8985H215.445Z" fill="#57A039"/>
<path d="M200.205 18.2363L198.678 20.989V22.9477H198.027V21.0023L196.5 18.2496H197.213L198.39 20.42L199.567 18.2496H200.192L200.205 18.2363Z" fill="#231F20"/>
<path d="M203.358 22.9345H200.617V18.2363H203.271V18.7922H201.256V20.2347H202.883V20.7905H201.256V22.3919H203.358V22.9477V22.9345Z" fill="#231F20"/>
<path d="M207.526 22.9321H206.838L206.437 21.6484H204.697L204.284 22.9321H203.684L205.223 18.2207H205.987L207.526 22.9321ZM206.275 21.1322L205.561 18.8824L204.848 21.1322H206.275Z" fill="#231F20"/>
<path d="M211.144 22.9345H210.431L209.454 20.9229H208.591V22.9345H207.965V18.2363H209.404C210.518 18.2363 211.031 18.8054 211.031 19.573C211.031 20.1685 210.719 20.6317 210.105 20.817L211.144 22.9345ZM209.392 18.7525H208.616V20.42H209.404C210.018 20.42 210.393 20.1288 210.393 19.5862C210.393 19.0436 210.043 18.7525 209.404 18.7525H209.392Z" fill="#231F20"/>
<path d="M212.997 23.0004C212.272 23.0004 211.758 22.7225 211.383 22.3916L211.708 21.9417C212.059 22.246 212.447 22.471 213.01 22.471C213.573 22.471 213.899 22.2196 213.899 21.7299C213.899 21.2799 213.686 21.055 212.947 20.8432C212.021 20.5785 211.533 20.2874 211.533 19.4536C211.533 18.7787 211.996 18.1699 212.972 18.1699C213.598 18.1699 214.024 18.3949 214.362 18.6993L214.049 19.1625C213.711 18.8713 213.398 18.6993 212.935 18.6993C212.472 18.6993 212.146 18.964 212.146 19.361C212.146 19.8639 212.409 20.0359 213.098 20.2345C214.036 20.4859 214.5 20.83 214.5 21.6505C214.5 22.5637 213.811 23.0004 212.985 23.0004H212.997Z" fill="#231F20"/>
<path d="M14.2444 19.63L14.0944 18.94C18.6444 17.76 20.9544 15.51 20.9544 9.73C20.9544 3.95 18.0644 1.26 13.7044 1.26C12.2344 1.26 11.4044 1.41 10.3244 1.65V25.15C10.3244 31.27 10.8644 32.01 13.9944 32.54L15.7544 32.83V33.57C14.8244 33.57 9.38438 33.47 7.57438 33.47C5.76438 33.47 1.01437 33.57 -0.015625 33.57V32.83L1.69438 32.54C4.09438 32.15 4.53438 30.92 4.53438 25.15V8.41C4.53438 2.63 4.09438 1.41 1.69438 1.02L-0.015625 0.73V0C1.01437 0 5.86438 0.1 7.72438 0.1C9.58438 0.1 12.3244 0.05 14.5844 0.05C21.8844 0.05 27.0744 3.13 27.0744 9.45C27.0744 15.77 22.1244 18.8 14.2444 19.63Z" fill="#231F20"/>
<path d="M38.725 34.0709C31.915 34.0709 26.875 29.7609 26.875 21.6809C26.875 14.8709 31.775 9.63086 38.775 9.63086C45.775 9.63086 50.625 13.9409 50.625 22.0209C50.625 28.8309 45.675 34.0709 38.725 34.0709ZM38.095 10.8609C34.765 10.8609 32.855 13.4109 32.855 20.3109C32.855 27.9009 35.305 32.8509 39.365 32.8509C42.745 32.8509 44.605 30.3009 44.605 23.4009C44.605 15.8109 42.205 10.8709 38.095 10.8709" fill="#231F20"/>
<path d="M76.1039 11.4105C77.8139 12.2405 78.2539 14.1905 78.2539 16.7405V26.9705C78.2539 31.6705 77.8639 32.4005 75.9039 32.7005L74.9739 32.8505V33.5805C76.1039 33.5805 78.8939 33.5305 80.9939 33.5305C83.0939 33.5305 85.8439 33.5805 87.0139 33.5805V32.8505L86.2339 32.7005C84.0839 32.3105 83.7339 31.6705 83.7339 27.3605V14.5805C85.1539 13.5005 86.7739 12.7705 88.6839 12.7705C91.4239 12.7705 92.9939 14.5305 92.9939 18.1105V27.3605C92.9939 31.6705 92.6039 32.3105 90.4939 32.7005L89.7139 32.8505V33.5805C90.8939 33.5805 93.6839 33.5305 95.7339 33.5305C97.7839 33.5305 100.634 33.5805 101.704 33.5805V32.8505L100.874 32.7005C98.8639 32.3605 98.4739 31.7705 98.4739 26.9705V17.0805C98.4739 12.1305 96.1239 9.78047 91.7639 9.78047C88.7239 9.78047 86.3239 11.2505 83.7339 13.4505V10.1705L83.0939 9.73047L76.6839 10.1705C76.6839 10.1705 74.8339 10.2805 74.3339 10.2905C73.5939 10.3105 72.7539 10.3205 71.4239 10.3205C69.3639 10.3205 67.6539 10.2705 66.4739 10.2705V11.0005L67.5539 11.1505C68.8739 11.3505 69.5139 12.0305 69.5139 13.0105C69.5139 14.0405 69.0739 15.5105 68.3339 17.4205L64.2239 28.0005L59.2339 15.3705C58.8939 14.4905 58.5939 13.4605 58.5939 12.6805C58.5939 11.9005 59.0339 11.4105 60.5039 11.1605L61.4839 11.0105V10.2805C60.3539 10.2805 57.1739 10.3305 55.0739 10.3305C52.9739 10.3305 49.9339 10.2805 48.7539 10.2805V11.0105L49.5839 11.1605C51.6439 11.5005 52.1339 12.2905 53.9439 16.3505L61.6839 33.6805C60.8539 35.6405 59.9239 37.3005 59.1839 38.5805C54.9239 38.3405 52.7739 39.4605 52.7739 41.2705C52.7739 42.6905 53.6539 43.9605 55.2739 43.9605C57.5739 43.9605 59.4839 42.3405 61.3439 38.0405L70.6939 16.5005C72.4039 12.5305 72.8139 11.5105 74.6339 11.1605C75.2939 11.1405 75.7639 11.2205 76.1039 11.4105Z" fill="#231F20"/>
<path d="M117.415 31.0809C115.455 32.7909 113.395 33.9209 110.855 33.9209C107.085 33.9209 105.125 32.2109 105.125 28.1909V12.5209H101.645V11.6409L105.365 10.2209L109.035 2.88086H110.555V10.4209H116.875V12.5309H110.555V28.0509C110.555 30.3509 111.685 31.4809 113.545 31.4809C114.815 31.4809 115.655 31.1409 116.825 30.3009L117.415 31.0809Z" fill="#231F20"/>
<path d="M122.895 19.6691V20.0091C123.045 26.7191 126.665 30.8291 131.565 30.8291C134.255 30.8291 136.115 29.8491 138.125 27.8391L138.765 28.3291C136.215 31.8591 132.935 34.0591 128.675 34.0591C122.455 34.0591 117.805 29.7991 117.805 22.4991C117.805 14.6191 123.725 9.61914 129.455 9.61914C135.775 9.61914 138.805 13.1491 138.955 19.6591H122.895V19.6691ZM133.185 18.3491C133.035 13.3991 131.275 10.9091 128.435 10.9091C125.255 10.9091 123.195 13.6491 122.905 18.3491H133.185Z" fill="#231F20"/>
<path d="M156.884 15.8502C156.054 15.8502 154.634 15.4102 151.984 14.1402C150.854 14.6802 149.834 15.3602 149.044 16.1002V26.9202C149.044 31.7202 149.484 32.2102 152.524 32.7002L153.454 32.8502V33.5802C152.084 33.5802 148.314 33.5302 146.204 33.5302C144.094 33.5302 141.404 33.5802 140.284 33.5802V32.8502L141.214 32.7002C143.174 32.4102 143.564 31.6702 143.564 26.9702V16.7402C143.564 14.1902 143.124 13.5102 141.414 12.6802L140.234 12.0902V11.5502L148.414 9.74023L149.054 10.1802V14.5902C152.144 10.7202 153.904 9.74023 156.104 9.74023C157.814 9.74023 158.944 10.5202 158.944 12.2902C158.944 14.7902 157.914 15.8602 156.884 15.8602" fill="#231F20"/>
<path d="M161.023 33.8202C159.063 33.8202 157.543 32.2502 157.543 30.3402C157.543 28.4302 159.063 26.9102 161.023 26.9102C162.983 26.9102 164.503 28.4302 164.503 30.3402C164.503 32.2502 162.983 33.8202 161.023 33.8202Z" fill="#231F20"/>
<path d="M27.6753 45.2869L27.1347 45.3545C26.3778 45.4491 26.121 45.7734 25.9183 47.0709L25.0668 52.6394C24.7695 54.5586 23.9585 55.4236 21.4446 56.4778L21.2148 56.0183C22.8502 55.1938 23.4179 54.5045 23.6612 52.9908L24.5937 47.0574C24.7965 45.7599 24.6884 45.4355 23.945 45.3409L23.3909 45.2734L23.4855 44.7598C23.7558 44.7598 25.0938 44.7868 25.5939 44.7868C26.094 44.7868 27.4861 44.7598 27.7429 44.7598L27.6483 45.2734L27.6753 45.2869Z" fill="#231F20"/>
<path d="M30.0123 54.1248C28.4851 54.1248 27.3633 53.1382 27.3633 51.3541C27.3633 49.043 28.877 47.3535 30.8503 47.3535C32.3776 47.3535 33.4994 48.3266 33.4994 50.1107C33.4994 52.4219 31.9991 54.1248 30.0123 54.1248ZM30.7692 47.8806C29.5663 47.8806 28.7013 49.516 28.7013 51.5974C28.7013 52.9355 29.1744 53.6113 30.0799 53.6113C31.2963 53.6113 32.1478 51.9759 32.1478 49.8945C32.1478 48.5429 31.6748 47.8806 30.7692 47.8806Z" fill="#231F20"/>
<path d="M41.2837 53.0421C40.5944 53.7179 40.0132 54.0558 39.4861 54.0558C38.7968 54.0558 38.513 53.5422 38.6211 52.7583C37.5128 53.6638 36.8235 54.0963 36.0666 54.0963C35.3098 54.0963 34.8502 53.6773 34.8502 52.8664C34.8502 52.6502 34.8908 52.3934 34.9448 52.1366L35.472 49.3659C35.5801 48.7712 35.472 48.5279 34.9719 48.3252L34.5664 48.163L34.6475 47.8251L36.8505 47.3926L36.9992 47.5548L36.1748 51.9068C36.1477 52.0825 36.0937 52.3798 36.0937 52.5555C36.0937 52.8799 36.2694 53.1367 36.6343 53.1367C37.0938 53.1367 37.6885 52.8394 38.7427 52.0014L39.5942 47.5413H40.7701L39.8375 52.4745C39.7564 52.934 39.8645 53.1232 40.1213 53.1232C40.3376 53.1232 40.6484 52.9475 40.9863 52.6772L41.2837 53.0556V53.0421Z" fill="#231F20"/>
<path d="M46.5951 48.9078C46.1761 48.8808 45.8788 48.8402 45.4733 48.7591C45.0408 48.9754 44.5948 49.3538 44.1352 49.7998L43.3513 53.9491H42.1755L43.0405 49.3538C43.1486 48.7591 43.0405 48.5159 42.5539 48.3131L42.1484 48.1509L42.2295 47.813L44.392 47.3805L44.5407 47.5427L44.2434 49.07C45.3922 47.7184 45.8247 47.3535 46.3248 47.3535C46.7302 47.3535 46.987 47.5698 46.987 47.9752C46.987 48.3537 46.7843 48.7051 46.5816 48.8943L46.5951 48.9078Z" fill="#231F20"/>
<path d="M54.29 53.0436C53.6007 53.7194 53.0195 54.0573 52.4924 54.0573C51.7896 54.0573 51.4112 53.5707 51.6139 52.6111L52.2626 49.5566C52.2897 49.4214 52.3437 49.097 52.3437 48.9078C52.3437 48.5834 52.1545 48.3266 51.8031 48.3266C51.3301 48.3266 50.7219 48.6375 49.6677 49.4755L48.8162 53.9356H47.6403L48.5053 49.3403C48.6134 48.7456 48.5053 48.5023 48.0187 48.2996L47.6133 48.1374L47.6944 47.7995L49.8569 47.367L50.0055 47.5292L49.7758 48.6916C50.8841 47.786 51.5869 47.3535 52.3437 47.3535C53.1006 47.3535 53.5601 47.759 53.5601 48.5699C53.5601 48.7862 53.5331 49.0565 53.4791 49.3133L52.8303 52.4354C52.7357 52.8814 52.8573 53.0841 53.1141 53.0841C53.3304 53.0841 53.6412 52.9084 53.9791 52.6381L54.2765 53.0166L54.29 53.0436Z" fill="#231F20"/>
<path d="M61.8669 53.0436C61.1776 53.7194 60.5964 54.0573 60.0693 54.0573C59.3935 54.0573 59.1502 53.5437 59.1773 52.9219C58.4339 53.6653 57.8122 54.0978 57.0283 54.0978C55.8794 54.0978 55.082 53.2328 55.082 51.7866C55.082 49.2998 56.9201 47.4616 58.6637 47.4616C59.4205 47.4616 59.9341 47.6373 60.4207 47.9077L61.0289 47.3535H61.3938L60.4207 52.4624C60.3396 52.9219 60.4612 53.1112 60.718 53.1112C60.9343 53.1112 61.2452 52.9355 61.583 52.6652L61.8804 53.0436H61.8669ZM58.4609 48.0834C57.2445 48.0834 56.339 49.4214 56.339 51.3947C56.339 52.5435 56.812 53.1247 57.5013 53.1247C58.1095 53.1247 58.5691 52.8273 59.2989 52.1516L59.6503 50.354C59.6909 50.1107 59.7179 49.7323 59.7179 49.489C59.7179 48.651 59.2584 48.0969 58.4744 48.0969L58.4609 48.0834Z" fill="#231F20"/>
<path d="M65.67 44.1368L64.1833 52.4624C64.1022 52.9219 64.2103 53.1112 64.4671 53.1112C64.6833 53.1112 64.9942 52.9355 65.3321 52.6652L65.6294 53.0436C64.9401 53.7194 64.359 54.0573 63.8454 54.0573C63.129 54.0573 62.8047 53.5166 62.9533 52.6922L64.1562 45.9479C64.2643 45.3127 64.1022 45.1099 63.6561 44.9342L63.2507 44.772L63.3318 44.4341L65.4943 43.9746L65.6565 44.1368H65.67Z" fill="#231F20"/>
<path d="M69.6594 53.0441C68.9702 53.7199 68.389 54.0578 67.8754 54.0578C67.1591 54.0578 66.8347 53.5172 66.9969 52.6927L67.6321 49.3544C67.7402 48.7597 67.6321 48.5164 67.132 48.3137L66.7266 48.1515L66.8077 47.8136L68.9972 47.3811L69.1458 47.5433L68.2133 52.4495C68.1187 52.909 68.2403 53.0982 68.4971 53.0982C68.7134 53.0982 69.0242 52.9225 69.3621 52.6522L69.6594 53.0306V53.0441ZM68.7134 45.9349C68.2133 45.9349 67.8213 45.5565 67.8213 45.0564C67.8213 44.5563 68.2268 44.1914 68.7134 44.1914C69.1999 44.1914 69.5784 44.5698 69.5784 45.0564C69.5784 45.543 69.1864 45.9349 68.7134 45.9349Z" fill="#231F20"/>
<path d="M74.493 49.1241C74.2227 49.1241 74.0064 48.8673 73.6415 47.9077C73.5739 47.8806 73.4928 47.8671 73.3712 47.8671C72.6684 47.8671 72.1412 48.3807 72.1412 48.9484C72.1412 49.516 72.3575 49.7458 73.3306 50.2729C74.493 50.9081 74.8849 51.3677 74.8849 52.1245C74.8849 53.3274 73.8442 54.1384 72.3575 54.1384C70.8708 54.1384 70.168 53.5707 70.168 53.0166C70.168 52.6787 70.6545 52.3137 70.9789 52.3137C71.2762 52.3137 71.4655 52.5841 71.8439 53.5302C71.9655 53.5842 72.1683 53.6248 72.371 53.6248C73.1549 53.6248 73.7361 53.1382 73.7361 52.53C73.7361 52.0164 73.5334 51.7461 72.5467 51.2055C71.4384 50.5973 70.9924 50.1648 70.9924 49.3133C70.9924 48.3537 71.8439 47.3535 73.4117 47.3535C74.6687 47.3535 75.3039 47.9752 75.3039 48.4618C75.3039 48.8132 74.8444 49.1241 74.5065 49.1241H74.493Z" fill="#231F20"/>
<path d="M86.5006 53.0434C85.8113 53.7192 85.2301 54.0571 84.703 54.0571C84.0002 54.0571 83.6217 53.5705 83.8245 52.6109L84.4732 49.5429C84.5002 49.4077 84.5543 49.0834 84.5543 48.8941C84.5543 48.5833 84.3651 48.3265 84.0407 48.3265C83.6623 48.3265 83.0541 48.6373 82.0269 49.4213L81.1619 53.9355H79.986L80.824 49.5294C80.851 49.3807 80.9051 49.0698 80.9051 48.8806C80.9051 48.5698 80.7159 48.313 80.3915 48.313C79.9995 48.313 79.3508 48.6238 78.2966 49.4618L77.4451 53.922H76.2692L77.1342 49.3266C77.2423 48.732 77.1342 48.4887 76.6477 48.2859L76.2422 48.1238L76.3233 47.7859L78.4858 47.3534L78.6345 47.5155L78.4047 48.6779C79.513 47.7723 80.2428 47.3398 80.9321 47.3398C81.689 47.3398 82.1485 47.8129 82.1215 48.5968C83.1757 47.7453 83.9191 47.3398 84.5813 47.3398C85.3112 47.3398 85.7707 47.7723 85.7707 48.5427C85.7707 48.759 85.7437 49.0158 85.6896 49.2726L85.0273 52.4217C84.9327 52.8677 85.0544 53.0705 85.3112 53.0705C85.5274 53.0705 85.8383 52.8948 86.1762 52.6245L86.4735 53.0029L86.5006 53.0434Z" fill="#231F20"/>
<path d="M88.1048 54.0591C87.5912 54.0591 87.1992 53.6672 87.1992 53.1401C87.1992 52.613 87.6047 52.248 88.1048 52.248C88.6049 52.248 89.0103 52.64 89.0103 53.1401C89.0103 53.6807 88.6049 54.0591 88.1048 54.0591Z" fill="#231F20"/>
<path d="M103.214 44.5137L102.862 46.933H102.376L102.295 46.4194C102.16 45.5949 101.849 45.4057 100.578 45.4057H99.3888L98.2805 51.677C98.0508 52.988 98.1724 53.3123 98.9023 53.3934L99.497 53.461L99.4023 53.9746C99.132 53.9746 97.7669 53.9476 97.2669 53.9476C96.7668 53.9476 95.3206 53.9746 95.0638 53.9746L95.1584 53.461L95.7666 53.3934C96.537 53.3123 96.7533 52.988 96.983 51.677L98.0913 45.4057H96.9695C95.6991 45.4057 95.2936 45.5949 94.7935 46.4329L94.4962 46.933H93.9961L94.7124 44.5137H95.1044C95.4152 44.784 95.6045 44.8245 98.8212 44.8245C102.038 44.8245 102.389 44.784 102.835 44.5137H103.227H103.214Z" fill="#231F20"/>
<path d="M106.404 48.9078C105.985 48.8808 105.687 48.8402 105.282 48.7591C104.849 48.9754 104.403 49.3538 103.944 49.7998L103.16 53.9491H101.984L102.849 49.3538C102.957 48.7591 102.849 48.5159 102.362 48.3131L101.957 48.1509L102.038 47.813L104.201 47.3805L104.349 47.5427L104.052 49.07C105.201 47.7184 105.633 47.3535 106.133 47.3535C106.539 47.3535 106.796 47.5698 106.796 47.9752C106.796 48.3537 106.593 48.7051 106.39 48.8943L106.404 48.9078Z" fill="#231F20"/>
<path d="M114.049 53.0421C113.36 53.7179 112.779 54.0558 112.252 54.0558C111.562 54.0558 111.279 53.5422 111.387 52.7583C110.278 53.6638 109.589 54.0963 108.832 54.0963C108.075 54.0963 107.616 53.6773 107.616 52.8664C107.616 52.6502 107.656 52.3934 107.71 52.1366L108.238 49.3659C108.346 48.7712 108.238 48.5279 107.738 48.3252L107.332 48.163L107.413 47.8251L109.616 47.3926L109.765 47.5548L108.94 51.9068C108.913 52.0825 108.859 52.3798 108.859 52.5555C108.859 52.8799 109.035 53.1367 109.4 53.1367C109.859 53.1367 110.454 52.8394 111.508 52.0014L112.36 47.5413H113.536L112.603 52.4745C112.522 52.934 112.63 53.1232 112.887 53.1232C113.103 53.1232 113.414 52.9475 113.752 52.6772L114.049 53.0556V53.0421Z" fill="#231F20"/>
<path d="M119.017 47.5423L118.895 48.2857H117.111L116.395 52.1241C116.368 52.2863 116.354 52.4891 116.354 52.6377C116.354 53.0162 116.571 53.2459 116.935 53.2459C117.3 53.2459 117.611 53.0702 117.936 52.7999L118.26 53.1919C117.8 53.6649 117.192 54.0839 116.476 54.0839C115.624 54.0839 115.138 53.5973 115.138 52.881C115.138 52.7459 115.165 52.4485 115.192 52.3134L115.935 48.2857H115.07L115.138 47.8262L116.125 47.5153L116.76 45.7988H117.571L117.233 47.5288H119.017V47.5423Z" fill="#231F20"/>
<path d="M126.074 53.0434C125.384 53.7192 124.803 54.0571 124.276 54.0571C123.573 54.0571 123.195 53.5705 123.398 52.6109L124.046 49.5564C124.073 49.4213 124.127 49.0969 124.127 48.9077C124.127 48.5833 123.938 48.3265 123.587 48.3265C123.114 48.3265 122.492 48.6373 121.438 49.4753L120.613 53.9355H119.438L120.911 45.9612C121.019 45.3666 120.911 45.1233 120.411 44.9206L120.019 44.7584L120.1 44.4205L122.262 43.9609L122.424 44.1231L121.586 48.6914C122.681 47.7859 123.384 47.3669 124.141 47.3669C124.898 47.3669 125.357 47.7723 125.357 48.5833C125.357 48.7995 125.33 49.0698 125.276 49.3266L124.627 52.4488C124.533 52.8948 124.655 53.0975 124.911 53.0975C125.128 53.0975 125.438 52.9218 125.776 52.6515L126.074 53.0299V53.0434Z" fill="#231F20"/>
<path d="M127.679 54.0591C127.165 54.0591 126.773 53.6672 126.773 53.1401C126.773 52.613 127.179 52.248 127.679 52.248C128.179 52.248 128.585 52.64 128.585 53.1401C128.585 53.6807 128.179 54.0591 127.679 54.0591Z" fill="#231F20"/>
<path d="M136.99 53.9774C135.882 53.9774 135.192 53.9369 134.557 53.9369C134.044 53.9369 132.868 53.9639 132.57 53.9639L132.665 53.4503L133.165 53.3827C133.841 53.2881 134.044 53.0043 134.273 51.6662L135.071 47.0574C135.3 45.7329 135.219 45.422 134.584 45.3409L134.071 45.2734L134.165 44.7598C134.462 44.7598 135.544 44.7868 136.03 44.7868C136.449 44.7868 136.882 44.7868 137.328 44.7868C140.166 44.7868 142.396 46.0978 142.396 48.855C142.396 51.9501 139.99 53.9639 136.976 53.9639L136.99 53.9774ZM137.301 45.3409C137.03 45.3409 136.841 45.368 136.679 45.4085L135.584 51.6392C135.355 52.9637 135.719 53.4368 137.003 53.4368C139.328 53.4368 140.855 51.6933 140.855 48.9361C140.855 46.6114 139.531 45.3545 137.301 45.3545V45.3409Z" fill="#231F20"/>
<path d="M144.671 51.192C144.738 52.5976 145.36 53.2869 146.306 53.2869C146.914 53.2869 147.374 53.0571 148.036 52.557L148.374 52.922C147.604 53.6923 146.874 54.1113 145.86 54.1113C144.414 54.1113 143.387 53.0706 143.387 51.4217C143.387 49.3133 145.022 47.3535 146.928 47.3535C148.225 47.3535 148.901 47.9212 148.901 48.8267C148.901 50.1377 147.482 50.9352 144.684 51.192H144.671ZM146.657 47.8806C145.617 47.8806 144.765 49.2592 144.671 50.7324C146.833 50.5162 147.563 49.8809 147.563 48.8402C147.563 48.2185 147.293 47.8806 146.657 47.8806Z" fill="#231F20"/>
<path d="M160.032 53.0434C159.342 53.7192 158.761 54.0571 158.234 54.0571C157.531 54.0571 157.153 53.5705 157.356 52.6109L158.004 49.5429C158.031 49.4077 158.086 49.0834 158.086 48.8941C158.086 48.5833 157.896 48.3265 157.572 48.3265C157.194 48.3265 156.585 48.6373 155.558 49.4213L154.693 53.9355H153.517L154.355 49.5294C154.382 49.3807 154.436 49.0698 154.436 48.8806C154.436 48.5698 154.247 48.313 153.923 48.313C153.531 48.313 152.882 48.6238 151.828 49.4618L150.976 53.922H149.8L150.665 49.3266C150.774 48.732 150.665 48.4887 150.179 48.2859L149.773 48.1238L149.855 47.7859L152.017 47.3534L152.166 47.5155L151.936 48.6779C153.044 47.7723 153.774 47.3398 154.463 47.3398C155.22 47.3398 155.68 47.8129 155.653 48.5968C156.707 47.7453 157.45 47.3398 158.113 47.3398C158.842 47.3398 159.302 47.7723 159.302 48.5427C159.302 48.759 159.275 49.0158 159.221 49.2726L158.559 52.4217C158.464 52.8677 158.586 53.0705 158.842 53.0705C159.059 53.0705 159.37 52.8948 159.707 52.6245L160.005 53.0029L160.032 53.0434Z" fill="#231F20"/>
<path d="M163.458 54.1248C161.93 54.1248 160.809 53.1382 160.809 51.3541C160.809 49.043 162.322 47.3535 164.296 47.3535C165.823 47.3535 166.945 48.3266 166.945 50.1107C166.945 52.4219 165.444 54.1248 163.458 54.1248ZM164.228 47.8806C163.025 47.8806 162.16 49.516 162.16 51.5974C162.16 52.9355 162.633 53.6113 163.539 53.6113C164.755 53.6113 165.607 51.9759 165.607 49.8945C165.607 48.5429 165.134 47.8806 164.228 47.8806Z" fill="#231F20"/>
<path d="M172.54 49.5023C172.161 49.5023 172.013 49.2456 171.742 47.9616C171.634 47.9075 171.54 47.894 171.404 47.894C170.188 47.894 169.337 49.2591 169.337 50.9215C169.337 52.5839 170.066 53.2597 171.04 53.2597C171.607 53.2597 171.959 53.0975 172.58 52.665L172.878 53.057C172.148 53.7598 171.486 54.1112 170.485 54.1112C169.161 54.1112 168.039 53.1921 168.039 51.3945C168.039 49.1645 169.607 47.3398 171.567 47.3398C172.742 47.3398 173.432 48.0156 173.432 48.732C173.432 49.1645 172.972 49.4888 172.553 49.4888L172.54 49.5023Z" fill="#231F20"/>
<path d="M178.685 48.9078C178.266 48.8808 177.969 48.8402 177.563 48.7591C177.131 48.9754 176.685 49.3538 176.225 49.7998L175.441 53.9491H174.265L175.13 49.3538C175.238 48.7591 175.13 48.5159 174.644 48.3131L174.238 48.1509L174.319 47.813L176.482 47.3805L176.631 47.5427L176.333 49.07C177.482 47.7184 177.915 47.3535 178.415 47.3535C178.82 47.3535 179.077 47.5698 179.077 47.9752C179.077 48.3537 178.874 48.7051 178.671 48.8943L178.685 48.9078Z" fill="#231F20"/>
<path d="M185.929 53.0436C185.24 53.7194 184.659 54.0573 184.132 54.0573C183.456 54.0573 183.213 53.5437 183.24 52.9219C182.496 53.6653 181.875 54.0978 181.091 54.0978C179.942 54.0978 179.145 53.2328 179.145 51.7866C179.145 49.2998 180.983 47.4616 182.726 47.4616C183.483 47.4616 183.997 47.6373 184.483 47.9077L185.091 47.3535H185.456L184.483 52.4624C184.402 52.9219 184.524 53.1112 184.781 53.1112C184.997 53.1112 185.308 52.9355 185.646 52.6652L185.943 53.0436H185.929ZM182.537 48.0834C181.321 48.0834 180.415 49.4214 180.415 51.3947C180.415 52.5435 180.888 53.1247 181.577 53.1247C182.186 53.1247 182.645 52.8273 183.375 52.1516L183.726 50.354C183.767 50.1107 183.794 49.7323 183.794 49.489C183.794 48.651 183.334 48.0969 182.55 48.0969L182.537 48.0834Z" fill="#231F20"/>
<path d="M191.239 49.5023C190.861 49.5023 190.712 49.2456 190.442 47.9616C190.333 47.9075 190.239 47.894 190.104 47.894C188.887 47.894 188.036 49.2591 188.036 50.9215C188.036 52.5839 188.766 53.2597 189.739 53.2597C190.306 53.2597 190.658 53.0975 191.28 52.665L191.577 53.057C190.847 53.7598 190.185 54.1112 189.185 54.1112C187.86 54.1112 186.738 53.1921 186.738 51.3945C186.738 49.1645 188.306 47.3398 190.266 47.3398C191.442 47.3398 192.131 48.0156 192.131 48.732C192.131 49.1645 191.671 49.4888 191.252 49.4888L191.239 49.5023Z" fill="#231F20"/>
<path d="M196.735 53.5305C195.126 55.9498 194.153 56.9094 193.342 56.9094C192.666 56.9094 192.355 56.5715 192.355 56.193C192.355 55.8146 192.639 55.4902 192.869 55.4902C193.139 55.4902 193.504 55.5984 194.113 55.8281C194.545 55.5037 194.991 55.0172 195.667 54.0711L193.991 49.3541C193.775 48.7459 193.599 48.5297 193.126 48.3269L192.774 48.1783L192.842 47.8404L194.504 47.4079L194.707 47.5701L196.464 52.8682C197.262 51.5707 197.829 50.2732 198.005 49.3136C197.437 48.6378 197.194 48.2729 197.194 48.0431C197.194 47.7187 197.572 47.3809 198.005 47.3809C198.6 47.3809 198.965 47.8404 198.965 48.5567C198.965 49.4217 198.073 51.5572 196.748 53.5305H196.735Z" fill="#231F20"/>
<path d="M200.308 54.0591C199.794 54.0591 199.402 53.6672 199.402 53.1401C199.402 52.613 199.808 52.248 200.308 52.248C200.808 52.248 201.213 52.64 201.213 53.1401C201.213 53.6807 200.808 54.0591 200.308 54.0591Z" fill="#231F20"/>
</g>
<defs>
<clipPath id="clip0_306_657">
<rect width="222.43" height="56.9075" fill="white"/>
</clipPath>
</defs>
</svg>
